# xmcd CD database file
#
# Track frame offsets:
#	150
#	132859
#	144599
#	204606
#	229795
#	241826
#	268079
#
# Disc length: 3846 seconds
#
# Revision: 0
# Processed by: cddbd v1.5.1PL2 Copyright (c) Steve Scherf et al.
# Submitted via: CDex 1.51
#
DISCID=620f0407
DTITLE=Tirri Tarra - Luz Negra - Argi Beltz
DYEAR=2006
DGENRE=New Age
TTITLE0=Sin Palabras
TTITLE1=Beltz
TTITLE2=Fobia ¿Realidad o Ficción? Parte I - Sombras en el Día
TTITLE3=Fobia ¿Realidad o Ficción? Parte II - Sombras en la Noche
TTITLE4=Intro Nahia
TTITLE5=Nahia
TTITLE6=Atzo Izana (1º Zatia)
EXTD=YEAR: 2006
EXTT0=
EXTT1=
EXTT2=
EXTT3=
EXTT4=
EXTT5=
EXTT6=
PLAYORDER=
